<svg t="1686585125124" class="icon" viewBox="0 0 1024 1024" version="1.1" xmlns="http://www.w3.org/2000/svg" p-id="2446" width="128" height="128"><path d="M543.334659 831.571363c-21.62553 4.007267-43.898813 6.203282-66.680678 6.203282-201.705931 0-365.208772-163.525354-365.208772-365.205703 0-201.705931 163.501818-365.208772 365.208772-365.208772 201.693652 0 365.208772 163.501818 365.208772 365.208772 0 31.080879-3.908006 61.244876-11.229762 90.069365l44.285622 0c6.538927-28.985148 10.085706-59.113329 10.085706-90.069365 0-225.529523-182.819792-408.365688-408.350338-408.365688S68.291362 247.038396 68.291362 472.567919c0 225.517243 182.833095 408.362618 408.362618 408.362618 22.720468 0 44.979424-1.936095 66.680678-5.509481L543.334659 831.571363z" fill="#0E57AA" p-id="2447"></path><path d="M433.225889 562.066279l0 170.58719L329.009316 732.653469 329.009316 243.402589l168.3308 0c121.69669 0 182.548616 51.606355 182.548616 154.75255 0 50.117444-18.365276 90.305749-55.092759 120.495328-36.753065 30.214139-82.712817 44.707225-137.879254 43.415812L433.225889 562.066279zM433.225889 324.265268l0 157.931962 45.166689 0c61.282738 0 91.919503-26.641777 91.919503-79.932494 0-52.002374-30.326702-77.999468-90.977038-77.999468L433.225889 324.265268z" fill="#0E57AA" p-id="2448"></path><path d="M769.609149 681.854503l-1.575892 0c-0.693802 7.966439-2.281973 15.597233-4.726651 22.967084l-31.007201 94.811366 72.349795 0-30.832216-94.105285C771.817444 699.575096 770.429841 691.681312 769.609149 681.854503z" fill="#0E57AA" p-id="2449"></path><path d="M584.15946 588.247568l0 371.548154 371.548154 0L955.707614 588.247568 584.15946 588.247568zM838.674131 906.540821l-20.337187-62.212924-98.68151 0-19.963681 62.212924-62.736856 0 99.365078-271.476995 67.984371 0 97.439216 271.476995L838.674131 906.540821z" fill="#0E57AA" p-id="2450"></path></svg>